<!-- Generated by IcoMoon.io -->
<svg version="1.1" xmlns="http://www.w3.org/2000/svg" width="32" height="32" viewBox="0 0 32 32">
<path fill="#df5c4e" d="M23.232 2.809c-2.948 0-5.644 1.512-7.156 4.057-0.050 0.076-0.176 0.076-0.202 0-1.537-2.545-4.208-4.057-7.156-4.057-4.611 0-8.365 3.754-8.365 8.365 0 10.003 14.614 17.512 15.622 18.041 1.008-0.504 15.622-8.038 15.622-18.041 0-4.611-3.754-8.365-8.365-8.365z"></path>
<path fill="#000" d="M15.975 29.594c-0.025 0-0.076 0-0.101-0.025-0.050-0.025-4.006-1.965-7.912-5.191-5.216-4.283-7.962-8.844-7.962-13.228 0-4.813 3.905-8.743 8.743-8.743 2.948 0 5.644 1.461 7.257 3.905 1.638-2.444 4.309-3.905 7.257-3.905 4.813 0 8.743 3.905 8.743 8.743 0 4.359-2.746 8.945-7.962 13.228-3.905 3.2-7.887 5.165-7.912 5.191-0.076 0.025-0.126 0.025-0.151 0.025zM8.718 2.935c-4.535 0-8.239 3.679-8.239 8.239 0 9.751 14.085 17.184 15.496 17.89 1.411-0.706 15.496-8.139 15.496-17.89 0-4.535-3.679-8.239-8.239-8.239-2.923 0-5.543 1.487-7.055 4.006-0.101 0.151-0.353 0.151-0.428 0-1.487-2.495-4.132-4.006-7.030-4.006z"></path>
<path fill="#000" d="M26.86 7.849c-0.076 0-0.126-0.025-0.176-0.076-0.907-0.882-2.117-1.386-3.376-1.386-0.151 0-0.252-0.101-0.252-0.252s0.101-0.252 0.252-0.252c1.411 0 2.721 0.554 3.729 1.537 0.101 0.101 0.101 0.252 0 0.353-0.050 0.050-0.101 0.076-0.176 0.076z"></path>
</svg>
