<!-- Generated by IcoMoon.io -->
<svg version="1.1" xmlns="http://www.w3.org/2000/svg" width="32" height="32" viewBox="0 0 32 32">
    <path fill="#f00" d="M14.75 28.818c-0.683-0.766-2.39-2.259-3.792-3.318-4.155-3.138-4.72-3.592-6.407-5.145-3.11-2.864-4.431-5.741-4.426-9.642 0.002-1.904 0.132-2.638 0.665-3.76 0.905-1.904 2.238-3.32 3.942-4.185 1.207-0.613 1.802-0.885 3.817-0.897 2.108-0.012 2.552 0.234 3.792 0.915 1.509 0.829 3.063 2.601 3.384 3.86l0.198 0.778 0.489-1.071c2.764-6.051 11.589-5.961 14.661 0.15 0.974 1.939 1.081 6.078 0.217 8.41-1.127 3.042-3.244 5.361-8.137 8.914-3.209 2.331-6.841 5.857-7.094 6.352-0.293 0.575-0.014 0.090-1.31-1.362z"></path>
</svg>