<!-- Generated by IcoMoon.io -->
<svg version="1.1" xmlns="http://www.w3.org/2000/svg" width="32" height="32" viewBox="0 0 32 32">
<path fill="#0c4da1" d="M16 1.063c8.25 0 14.875 6.688 14.875 14.938s-6.625 14.938-14.875 14.938-14.938-6.688-14.938-14.938 6.688-14.938 14.938-14.938z"></path>
<path fill="#0b428a" d="M26.625 5.5c2.688 2.688 4.313 6.438 4.313 10.5 0 8.25-6.688 14.938-14.938 14.938-4.063 0-7.813-1.625-10.5-4.375l21.125-21.063z"></path>
<path fill="#0a2952" d="M9 9.938c0-1 0.313-2 0.875-2.938s1.375-1.625 2.5-2.188 2.375-0.813 3.875-0.813c1.25 0 2.313 0.125 3.25 0.438s1.75 0.813 2.375 1.375 1.063 1.188 1.375 1.875c0.313 0.75 0.438 1.5 0.438 2.313 0 1-0.25 1.938-0.75 2.75-0.563 0.75-1.313 1.438-2.375 1.938 0.875 0.375 1.625 0.813 2.188 1.375 0.625 0.563 1.063 1.188 1.375 1.938 0.25 0.75 0.438 1.563 0.438 2.438 0 1.313-0.313 2.5-1 3.563-0.625 1.063-1.563 1.875-2.75 2.5-1.25 0.625-2.688 0.938-4.375 0.938-1.75 0-3.25-0.313-4.438-0.938-1.25-0.625-2.188-1.438-2.813-2.5s-0.938-2.25-0.938-3.563c0-2.75 1.313-4.688 4-5.75-2.188-1-3.25-2.563-3.25-4.75zM20.25 20.313c0-0.813-0.188-1.5-0.5-2.125s-0.813-1.063-1.438-1.375c-0.563-0.375-1.25-0.5-2-0.5-1.063 0-2 0.313-2.688 1.063-0.75 0.688-1.063 1.688-1.063 2.938 0 0.813 0.125 1.563 0.5 2.188 0.313 0.625 0.813 1.063 1.375 1.438 0.563 0.313 1.25 0.5 1.938 0.5 0.75 0 1.375-0.188 2-0.5 0.563-0.375 1.063-0.875 1.375-1.5s0.5-1.313 0.5-2.125zM16.313 6.938c-0.938 0-1.75 0.313-2.375 0.938-0.563 0.625-0.875 1.375-0.875 2.375 0 0.875 0.313 1.625 0.938 2.188s1.375 0.875 2.375 0.875c0.5 0 0.938-0.063 1.313-0.25 0.438-0.125 0.75-0.375 1.063-0.625 0.25-0.25 0.5-0.625 0.625-1 0.188-0.375 0.25-0.813 0.25-1.25 0-0.625-0.125-1.188-0.438-1.688-0.25-0.438-0.625-0.875-1.125-1.125-0.5-0.313-1.063-0.438-1.75-0.438z"></path>
<path fill="#ffd000" d="M8.563 9.938c0-1 0.313-2 0.875-2.938s1.438-1.625 2.5-2.188c1.125-0.563 2.438-0.813 3.875-0.813 1.25 0 2.375 0.125 3.313 0.438s1.688 0.813 2.313 1.375 1.125 1.188 1.438 1.875c0.25 0.75 0.438 1.5 0.438 2.313 0 1-0.25 1.938-0.813 2.75-0.5 0.75-1.313 1.438-2.375 1.938 0.938 0.375 1.625 0.813 2.25 1.375 0.563 0.563 1 1.188 1.313 1.938s0.438 1.563 0.438 2.438c0 1.313-0.313 2.5-0.938 3.563s-1.563 1.875-2.813 2.5-2.688 0.938-4.375 0.938c-1.75 0-3.188-0.313-4.438-0.938s-2.188-1.438-2.813-2.5-0.938-2.25-0.938-3.563c0-2.75 1.313-4.688 4-5.75-2.125-1-3.25-2.563-3.25-4.75zM19.813 20.313c0-0.813-0.125-1.5-0.5-2.125-0.313-0.625-0.813-1.063-1.375-1.375-0.625-0.375-1.313-0.5-2.063-0.5-1.063 0-1.938 0.313-2.688 1.063-0.688 0.688-1.063 1.688-1.063 2.938 0 0.813 0.188 1.563 0.5 2.188 0.375 0.625 0.813 1.063 1.375 1.438 0.625 0.313 1.25 0.5 2 0.5 0.688 0 1.375-0.188 1.938-0.5 0.625-0.375 1.063-0.875 1.375-1.5 0.375-0.625 0.5-1.313 0.5-2.125zM15.938 6.938c-1 0-1.813 0.313-2.375 0.938-0.625 0.625-0.938 1.375-0.938 2.375 0 0.875 0.313 1.625 0.938 2.188s1.438 0.875 2.375 0.875c0.5 0 0.938-0.063 1.375-0.25 0.375-0.125 0.75-0.375 1-0.625 0.313-0.25 0.5-0.625 0.688-1 0.125-0.375 0.25-0.813 0.25-1.25 0-0.625-0.188-1.188-0.438-1.688-0.25-0.438-0.688-0.875-1.188-1.125-0.5-0.313-1.063-0.438-1.688-0.438z"></path>
</svg>
