<!-- Generated by IcoMoon.io -->
<svg version="1.1" xmlns="http://www.w3.org/2000/svg" width="22" height="32" viewBox="0 0 22 32">
<path fill="#e91e63" d="M11.787 0.667c-1.213 0.098-2.127 0.292-3.055 0.647-2.107 0.805-3.81 2.415-4.495 4.248-0.18 0.482-0.297 0.947-0.38 1.5-0.063 0.428-0.063 1.482 0 1.887 0.24 1.535 0.857 2.755 2.060 4.065 0.168 0.18 0.415 0.43 0.553 0.557 0.245 0.23 0.25 0.235 0.265 0.367 0.022 0.203 0.13 0.613 0.228 0.88 0.093 0.258 0.298 0.62 0.518 0.915 0.082 0.107 0.14 0.205 0.128 0.215-0.010 0.010-0.155 0.108-0.322 0.22-1.468 0.975-2.763 2.212-3.583 3.418-0.71 1.047-1.113 2.032-1.295 3.168-0.063 0.405-0.065 1.56 0 1.97 0.28 1.78 1.080 3.122 2.535 4.25 1.255 0.97 2.925 1.558 4.832 1.703 0.51 0.038 1.96 0.015 2.45-0.038 2.575-0.285 4.66-1.207 6.273-2.777 1.323-1.288 2.047-2.77 2.255-4.613 0.045-0.392 0.038-1.348-0.012-1.732-0.18-1.385-0.707-2.657-1.587-3.835-0.378-0.503-0.617-0.775-1.192-1.352l-0.555-0.557 0.055-0.068c0.288-0.345 0.567-0.922 0.683-1.393 0.020-0.082 0.047-0.195 0.060-0.25 0.067-0.277 0.052-1.453-0.027-1.838-0.065-0.315-0.135-0.607-0.19-0.775l-0.063-0.185 0.21-0.215c1.115-1.135 1.732-2.277 1.935-3.578 0.052-0.338 0.058-1.188 0.010-1.522-0.128-0.9-0.407-1.678-0.84-2.325-0.245-0.365-0.442-0.603-0.797-0.942-1.203-1.165-2.895-1.857-4.915-2.007-0.305-0.022-1.492-0.027-1.738-0.007zM11.575 2.303c1.383 0.15 2.572 0.97 3.377 2.328 0.457 0.768 0.728 1.627 0.853 2.707 0.037 0.315 0.040 1.555 0.002 1.75-0.018 0.105-0.030 0.123-0.070 0.117-0.027-0.005-0.178-0.015-0.33-0.023-0.342-0.015-0.61 0.030-0.957 0.16-0.74 0.28-1.415 0.947-1.832 1.813-0.072 0.148-0.135 0.27-0.143 0.27-0.008-0.002-0.053-0.088-0.1-0.195-0.227-0.495-0.545-0.95-0.928-1.318-0.277-0.265-0.465-0.398-0.777-0.545-0.41-0.195-0.57-0.23-1.045-0.227-0.305 0-0.443 0.010-0.53 0.040l-0.117 0.040-0.207-0.262c-0.713-0.895-1.2-1.875-1.35-2.705-0.067-0.378-0.072-0.963-0.010-1.303 0.12-0.673 0.425-1.223 0.945-1.712 0.825-0.777 1.873-1.080 3.22-0.935zM10.225 10.252c0.665 0.107 1.318 0.56 1.76 1.223 0.115 0.168 0.377 0.67 0.363 0.688-0.018 0.015-0.81-0.572-1.248-0.925-0.38-0.305-1.15-0.975-1.15-1.002 0-0.018 0.102-0.012 0.275 0.018zM15.348 10.265c0.152 0.018 0.155 0.020 0.14 0.082-0.030 0.125-0.313 0.668-0.482 0.928-0.217 0.332-0.412 0.578-0.707 0.887-0.23 0.24-0.635 0.615-0.77 0.71l-0.070 0.050-0.473-0.315c-0.535-0.355-0.508-0.335-0.465-0.35 0.015-0.008 0.092-0.135 0.17-0.287 0.175-0.35 0.315-0.56 0.527-0.803 0.393-0.44 0.838-0.715 1.367-0.842 0.313-0.075 0.485-0.088 0.762-0.060zM17.375 11.967c0.152 0.408 0.25 0.978 0.25 1.47 0 0.697-0.205 1.277-0.63 1.793l-0.098 0.117-0.328-0.262c-0.407-0.332-0.857-0.665-1.42-1.058-0.41-0.285-0.49-0.352-0.43-0.352 0.037 0 1.113-0.723 1.52-1.020 0.192-0.143 0.508-0.385 0.7-0.543 0.19-0.155 0.355-0.285 0.365-0.285 0.010-0.002 0.040 0.063 0.070 0.14zM7.845 14.758c0.16 0.127 0.388 0.305 0.505 0.393s0.223 0.165 0.232 0.175c0.020 0.018-0.31 0.225-0.355 0.225-0.023 0-0.193-0.18-0.31-0.33-0.14-0.175-0.393-0.617-0.393-0.685 0-0.025 0.048 0.008 0.32 0.223zM10.537 16.665c0.625 0.448 2.207 1.628 2.388 1.78l0.088 0.075-0.12 0.145c-0.065 0.082-0.185 0.247-0.265 0.367l-0.148 0.22-0.070-0.12c-0.295-0.508-1.072-1.337-1.697-1.81-0.175-0.133-0.762-0.52-1.075-0.712l-0.168-0.102 0.195-0.155c0.11-0.082 0.203-0.152 0.21-0.152s0.305 0.21 0.662 0.465zM9.213 17.297c1.005 0.715 1.252 0.915 1.745 1.41 0.385 0.39 0.678 0.742 0.957 1.16 0.217 0.323 0.435 0.733 0.435 0.82 0 0.032 0.018 0.078 0.040 0.098 0.080 0.080 0.195 0.027 0.225-0.105 0.027-0.105 0.203-0.448 0.345-0.668 0.217-0.335 0.693-0.938 0.74-0.938 0.023 0 0.648 0.525 0.938 0.785 1.23 1.11 1.857 1.865 2.323 2.79 0.325 0.65 0.457 1.152 0.483 1.815 0.035 0.948-0.168 1.69-0.66 2.435-0.235 0.352-0.747 0.878-1.107 1.13-0.435 0.308-0.953 0.532-1.488 0.645-0.325 0.067-1.015 0.093-1.4 0.052-1.060-0.115-2.033-0.535-2.963-1.277-0.355-0.282-0.982-0.918-1.293-1.305-0.9-1.122-1.395-2.253-1.598-3.633-0.063-0.422-0.065-1.457-0.003-1.865 0.19-1.27 0.728-2.335 1.692-3.352 0.135-0.145 0.242-0.238 0.258-0.227 0.018 0.008 0.165 0.113 0.33 0.23z"></path>
</svg>
