<!-- Generated by IcoMoon.io -->
<svg version="1.1" xmlns="http://www.w3.org/2000/svg" width="22" height="32" viewBox="0 0 22 32">
<path fill="#e91e63" d="M10.225 0.015c-0.34 0.022-0.998 0.105-1.287 0.162-0.068 0.013-0.188 0.035-0.262 0.050s-0.178 0.035-0.225 0.047c-0.485 0.122-0.63 0.163-0.9 0.25-0.173 0.055-0.335 0.11-0.362 0.123s-0.157 0.063-0.287 0.115c-0.67 0.26-1.438 0.667-2.087 1.105-0.232 0.155-0.745 0.548-0.925 0.708-0.135 0.118-0.725 0.708-0.865 0.862-0.25 0.277-0.643 0.817-0.848 1.162-0.107 0.18-0.355 0.675-0.425 0.85-0.030 0.075-0.065 0.16-0.075 0.188-0.028 0.063-0.155 0.457-0.208 0.638-0.133 0.465-0.242 1.353-0.242 1.962 0 0.383 0.052 0.915 0.13 1.313 0.052 0.273 0.205 0.838 0.268 0.988 0.012 0.027 0.065 0.158 0.117 0.287 0.11 0.277 0.345 0.745 0.49 0.975 0.125 0.197 0.35 0.533 0.368 0.55 0.010 0.008 0.047 0.057 0.090 0.113 0.525 0.71 1.47 1.59 2.377 2.213 0.315 0.215 0.955 0.633 1.010 0.658 0.085 0.037 0.51 0.31 0.518 0.332 0.005 0.020-0.075 0.060-0.442 0.217-0.063 0.027-0.152 0.065-0.2 0.085-0.213 0.093-0.293 0.13-0.815 0.385-0.303 0.148-0.607 0.302-0.675 0.343-0.070 0.040-0.175 0.102-0.237 0.135-1.095 0.622-2.125 1.455-2.732 2.207-0.077 0.095-0.16 0.198-0.183 0.223-0.020 0.027-0.123 0.17-0.225 0.32-0.385 0.56-0.735 1.363-0.882 2.020-0.175 0.782-0.188 0.92-0.188 1.9 0 0.74 0.007 0.935 0.045 1.175 0.077 0.485 0.203 1.030 0.313 1.365 0.168 0.508 0.472 1.16 0.75 1.6 0.137 0.223 0.422 0.635 0.455 0.66 0.008 0.008 0.060 0.067 0.113 0.137 0.275 0.345 0.802 0.87 1.19 1.183 0.158 0.128 0.305 0.247 0.328 0.267 0.112 0.093 0.765 0.517 0.978 0.635 0.050 0.030 0.13 0.073 0.175 0.098 0.128 0.073 0.468 0.245 0.6 0.302 0.277 0.122 0.343 0.15 0.593 0.245 0.555 0.212 1.070 0.365 1.5 0.445 0.048 0.010 0.133 0.027 0.188 0.040 0.572 0.13 1.43 0.253 1.975 0.282 0.11 0.008 0.203 0.025 0.207 0.038 0.012 0.038 1.898 0.038 1.91 0 0.005-0.015 0.155-0.035 0.357-0.050 0.703-0.045 1.31-0.125 1.925-0.253 0.137-0.027 0.277-0.055 0.313-0.063 0.255-0.045 0.893-0.223 1.338-0.37 0.545-0.18 1.395-0.57 1.872-0.855 0.122-0.073 0.225-0.133 0.233-0.133 0.005 0 0.113-0.070 0.24-0.155 0.128-0.087 0.247-0.168 0.273-0.183 0.070-0.043 0.455-0.323 0.52-0.378 0.035-0.030 0.192-0.163 0.35-0.297 0.563-0.477 1.145-1.113 1.567-1.712 0.503-0.715 0.825-1.375 1.080-2.212 0.11-0.358 0.218-0.94 0.267-1.42 0.008-0.078 0.025-0.137 0.038-0.13 0.012 0.010 0.023-0.253 0.023-0.663 0-0.383-0.010-0.672-0.023-0.665-0.027 0.017-0.052-0.105-0.052-0.25 0-0.060-0.010-0.163-0.023-0.227s-0.038-0.205-0.052-0.308c-0.047-0.288-0.205-0.913-0.275-1.087-0.010-0.027-0.035-0.090-0.050-0.137-0.105-0.29-0.308-0.723-0.47-1-0.12-0.2-0.445-0.68-0.523-0.762-0.025-0.027-0.090-0.108-0.145-0.175-0.148-0.183-0.613-0.642-0.9-0.89-0.585-0.503-1.337-1.020-1.977-1.36-0.12-0.065-0.242-0.133-0.275-0.155-0.030-0.020-0.465-0.242-0.963-0.492-0.5-0.25-0.91-0.467-0.915-0.482-0.005-0.012 0.107-0.082 0.248-0.152 0.908-0.453 1.557-0.863 2.245-1.415 0.39-0.313 1.093-1.012 1.385-1.377 0.205-0.255 0.64-0.885 0.64-0.925 0-0.010 0.020-0.047 0.047-0.082 0.047-0.070 0.27-0.502 0.335-0.655 0.020-0.047 0.060-0.137 0.087-0.2 0.080-0.182 0.247-0.695 0.302-0.932 0.067-0.285 0.078-0.345 0.12-0.605 0.063-0.39 0.063-1.598 0-2.013-0.095-0.63-0.2-1.065-0.36-1.513-0.060-0.17-0.073-0.205-0.125-0.338-0.015-0.035-0.095-0.205-0.18-0.378-0.188-0.385-0.473-0.822-0.795-1.23-0.302-0.382-0.93-1.012-1.308-1.317-0.262-0.21-0.97-0.7-1.012-0.7-0.010 0-0.047-0.020-0.082-0.048-0.038-0.025-0.203-0.115-0.367-0.198-0.258-0.127-0.387-0.188-0.73-0.333-0.033-0.012-0.082-0.032-0.113-0.047-0.137-0.057-0.77-0.255-1.045-0.328-0.245-0.065-0.428-0.102-0.9-0.182-0.602-0.105-0.815-0.12-1.975-0.128-0.625-0.003-1.2-0.003-1.275 0.003zM11.938 1.738c1.47 0.218 2.688 0.988 3.57 2.253 0.078 0.112 0.143 0.213 0.143 0.223s0.020 0.048 0.047 0.082c0.185 0.265 0.51 1.048 0.603 1.455 0.15 0.673 0.2 1.16 0.2 1.975 0 0.652-0.045 1.26-0.125 1.755-0.073 0.428-0.075 0.447-0.152 0.787-0.157 0.72-0.465 1.525-0.793 2.082-0.102 0.175-0.37 0.572-0.402 0.6-0.010 0.008-0.090 0.102-0.182 0.213-0.285 0.345-0.67 0.695-1.133 1.025-0.175 0.125-0.207 0.14-0.283 0.125-0.047-0.008-0.105-0.025-0.127-0.037-0.053-0.027-0.152-0.070-0.502-0.213-0.158-0.065-0.332-0.137-0.387-0.162-0.255-0.113-0.533-0.235-0.6-0.265-0.705-0.307-2.133-1.015-2.675-1.322-0.335-0.19-1.043-0.648-1.225-0.793-0.492-0.387-0.745-0.605-0.945-0.805-0.69-0.693-1.147-1.463-1.33-2.238-0.072-0.31-0.085-0.365-0.117-0.577-0.040-0.275-0.040-1.268 0-1.55 0.075-0.495 0.115-0.685 0.228-1.037 0.105-0.332 0.34-0.853 0.48-1.053 0.040-0.058 0.072-0.115 0.072-0.125s0.098-0.147 0.215-0.305c0.197-0.257 0.657-0.752 0.848-0.908 0.205-0.167 0.435-0.348 0.447-0.348 0.005 0 0.077-0.042 0.157-0.095 0.36-0.24 0.837-0.455 1.282-0.58 0.063-0.018 0.14-0.040 0.175-0.052 0.117-0.040 0.588-0.127 0.8-0.147 0.33-0.032 1.393-0.010 1.713 0.038zM8.415 16.525c0.068 0.030 0.158 0.070 0.197 0.087 0.043 0.017 0.2 0.085 0.35 0.15 0.152 0.065 0.31 0.133 0.35 0.15 0.043 0.017 0.133 0.058 0.2 0.087 0.070 0.032 0.175 0.078 0.238 0.105 0.152 0.065 0.265 0.115 0.412 0.183 0.070 0.032 0.193 0.087 0.275 0.125s0.217 0.1 0.3 0.137c0.082 0.038 0.213 0.098 0.287 0.133 0.133 0.060 0.38 0.172 0.688 0.317 0.31 0.145 1.78 0.878 1.883 0.938 0.057 0.035 0.21 0.125 0.335 0.2s0.23 0.137 0.235 0.137c0.012 0 0.43 0.275 0.537 0.352 0.957 0.698 1.51 1.233 1.947 1.885 0.247 0.37 0.485 0.878 0.578 1.247 0.098 0.383 0.117 0.512 0.157 0.977 0.105 1.24-0.185 2.572-0.79 3.633-0.108 0.188-0.32 0.503-0.383 0.57-0.012 0.015-0.065 0.078-0.113 0.142-0.15 0.198-0.705 0.725-0.985 0.935-0.498 0.372-1.13 0.703-1.655 0.87-0.068 0.020-0.155 0.050-0.197 0.063-0.91 0.293-2.645 0.392-3.662 0.207-0.623-0.11-1.21-0.293-1.718-0.535-0.085-0.040-0.16-0.073-0.168-0.073s-0.1-0.050-0.205-0.113c-0.103-0.063-0.195-0.113-0.202-0.113-0.015 0-0.565-0.375-0.582-0.398-0.008-0.010-0.035-0.035-0.065-0.055-0.407-0.28-1.072-1.020-1.413-1.573-0.152-0.247-0.44-0.82-0.52-1.038-0.032-0.082-0.067-0.172-0.077-0.2-0.013-0.027-0.045-0.122-0.075-0.212-0.173-0.54-0.268-1-0.348-1.715-0.035-0.29-0.035-1.535-0.003-1.813 0.080-0.672 0.13-0.95 0.255-1.398 0.040-0.145 0.082-0.297 0.095-0.337 0.077-0.285 0.37-0.938 0.605-1.358 0.025-0.043 0.070-0.122 0.098-0.175 0.452-0.8 1.695-1.957 2.71-2.523 0.17-0.095 0.23-0.095 0.427-0.008z"></path>
</svg>
