<svg xmlns="http://www.w3.org/2000/svg" width="32" height="32"><path fill="#fc3" d="M28.151 4.623c-.205 2.045-2.226 3.696-4.281 3.696h-7.871a1.043 1.043 0 0 1-.7-1.817l5.952-5.394A4.09 4.09 0 0 1 25.71.391c1.654.733 2.626 2.387 2.441 4.232zm-9.446 1.61h5.231c1.087 0 2.067-.802 2.145-1.886.073-1.012-.51-1.856-1.503-2.152-.692-.206-1.439.02-1.974.504l-3.899 3.534z"/><path fill="#ffe14d" d="M15.993 8.32h-7.87c-2.054 0-4.076-1.651-4.281-3.695-.185-1.845.787-3.499 2.44-4.232a4.092 4.092 0 0 1 4.46.717l5.952 5.394a1.042 1.042 0 0 1-.7 1.817zM7.978 2.115c-.295 0-.594.066-.884.2a2.05 2.05 0 0 0-1.127 1.358 2.059 2.059 0 0 0 1.994 2.559h5.327L9.341 2.655a2.015 2.015 0 0 0-1.363-.54z"/><path fill="#ff9f19" d="M18.087 6.233h-4.174a2.087 2.087 0 1 1 4.174 0z"/><path fill="#f28618" d="M18.087 6.233A2.087 2.087 0 0 0 16 4.146v2.087h2.087z"/><path fill="#e6563a" d="M29.913 10.407v19.478a2.084 2.084 0 0 1-2.087 2.087H4.174a2.084 2.084 0 0 1-2.087-2.087V10.407h27.826z"/><path fill="#d9472b" d="M16 31.972h11.826a2.084 2.084 0 0 0 2.087-2.087V10.407H16v21.565z"/><path fill="#ff9f19" d="M29.913 6.233H2.087A2.084 2.084 0 0 0 0 8.32v3.13c0 .577.466 1.043 1.044 1.043h29.913c.577 0 1.044-.466 1.044-1.043V8.32a2.084 2.084 0 0 0-2.087-2.087z"/><path fill="#f28618" d="M29.913 6.233H16v6.261h14.957c.577 0 1.044-.466 1.044-1.043v-3.13a2.084 2.084 0 0 0-2.087-2.087z"/><path fill="#ffe14d" d="M13.913 6.233h4.174v25.739h-4.174V6.233z"/><path fill="#fc3" d="M16 6.233h2.087v25.739H16V6.233z"/></svg>