<svg xmlns="http://www.w3.org/2000/svg" width="32" height="32"><path fill="#74d800" d="M2 12h28v18a2 2 0 0 1-2 2H4a2 2 0 0 1-2-2V12z"/><path fill="#5dad00" d="M2 7h28a2 2 0 0 1 2 2v1a2 2 0 0 1-2 2H2a2 2 0 0 1-2-2V9a2 2 0 0 1 2-2z"/><path fill="#ff2400" d="M13 12h6v20h-6V12z"/><path fill="#ba1d08" d="M13 7h6v5h-6V7zM9.55 2c.414 0 .789.168 1.06.44L13.17 5H9.5a1.5 1.5 0 0 1 0-3h.05zm0-2H9.5a3.5 3.5 0 1 0 0 7H16V5l-3.975-3.975A3.49 3.49 0 0 0 9.55 0zM22.45 2h.05a1.5 1.5 0 0 1 0 3h-3.67l2.56-2.56c.271-.272.646-.44 1.06-.44zm0-2c-.966 0-1.841.392-2.475 1.025L16 5v2h6.5a3.5 3.5 0 1 0 0-7z"/><path fill="#ff2400" d="M16 2a3 3 0 0 1 3 3v2h-6V5a3 3 0 0 1 3-3z"/></svg>