<svg xmlns="http://www.w3.org/2000/svg" width="24" height="32"><path fill="#87973f" d="M18 10.095s-.762 4.602-1.578 6.47c-.575 1.316-1.961 5.259-2.813 8.25-.004-.171-.008-.343-.014-.514-.165-3.622-.757-7.213-1.646-10.724a.178.178 0 0 0 .013.007l.006.003.009.005.012.006.007.003.01.004.005.002.013.002c.023.001.039-.014.087-.041a.948.948 0 0 1 .14-.061s.167.042.424.032v.001l.031-.002.075-.005.038-.004a2.094 2.094 0 0 0 .804-.261c.528-.3.945-1.054 1.191-1.688.09-.231.157-.447.199-.618.155-.64.097-1.466.094-2.13a8.606 8.606 0 0 1 .074-.947l.018-.15c.061-.501.127-1.003.117-1.309l-.003-.059c-.02-.398-.1-.488-.13-.507a.52.52 0 0 0-.216-.246c-.336-.199-.595.06-.909.134l-.003-.011a48.395 48.395 0 0 0-.197-.696 2.935 2.935 0 0 0-.087-.254 5.015 5.015 0 0 0-.194-.434c-.166-.335-.346-.642-.431-.855l-.025-.067-.01-.029c-.103-.298-.245-.436-.373-.363-.009.005-.018.011-.026.018s-.017.014-.024.022-.03.031-.043.047c-.029.036-.052.072-.079.099l-.001.001a.157.157 0 0 1-.135.05.385.385 0 0 1-.074-.013c-.154-.041-.252-.142-.348-.134a3.337 3.337 0 0 0-.588-.597c-.222-.169-.438-.338-.707-.381s-.121.393-.121.393l-.026-.025a3.396 3.396 0 0 0-.353-.296c-.172-.119-.506-.402-.854-.243a.694.694 0 0 0-.061.032c-.151.092-.217.235-.274.38l-.021.055a1.14 1.14 0 0 1-.129.259.316.316 0 0 1-.078.081l-.014.008-.031.017c-.006.003-.012.004-.019.006-.01.003-.019.007-.03.009l-.021.003-.03.004-.022.001h-.031l-.023-.001-.032-.002-.024-.003-.034-.004-.025-.003-.014-.002-.038-.005a1.99 1.99 0 0 1-.026-.003l-.033-.003a.21.21 0 0 0-.025-.002l-.031-.001h-.024l-.03.002-.023.002a.305.305 0 0 0-.029.007l-.021.006-.028.013-.018.009c-.01.006-.019.015-.028.023l-.013.011a.261.261 0 0 0-.036.048c-.17.287-.226.465-.115 1.054.018.096.042.194.068.293a1.022 1.022 0 0 0-.048-.022l-.018-.008a2.509 2.509 0 0 1-.072-.033l-.038-.018-.033-.015-.051-.025-.013-.006a1.69 1.69 0 0 1-.391-.27l-.044-.04c-.088-.081-.164-.158-.238-.219a.556.556 0 0 0-.175-.106c-.214-.077-.215.252-.212.336l.001.019c-.004.07-.007.132-.008.19-.003.25.034.41.156.731.084.223.073.527.072.891l.001.186v.01l.006.197v.006c.009.173.026.355.061.545.071.387.263.93.438 1.381l-.013-.018a6.25 6.25 0 0 1-.133-.188l-.009-.013c-.172-.252-.288-.458-.358-.557l-.005-.007a.29.29 0 0 0-.023-.03l-.009-.013v-.001l-.007-.01-.005-.007-.009-.011-.008-.01a.127.127 0 0 1-.01-.012l-.011-.013-.011-.013-.014-.016-.012-.013-.016-.017-.014-.014-.01-.01-.008-.007-.003-.002-.007-.006a.837.837 0 0 0-.085-.067.452.452 0 0 0-.261-.09s.196.476.186.97c-.032 1.546.045 1.523.172 2.374.082.547.222.918.784 1.44.681.632 2.528 1.941 3.093 1.999.053.005.103.009.152.011.055.017.084.02.084.02.35.034.608-.051.796-.217.134.048.226.069.226.069l.015.008c.245 1.12.447 2.249.622 3.381.516 3.447.813 6.968.47 10.442-.061-1.275-.318-3.079-1.067-5.376-1.67-5.122-2.944-7.447-2.944-7.447s.239 2.786.8 6.009c-1.478-2.381-3.127-4.813-3.389-5.414 0 0 2.55 6.515 3.156 7.937s2.969 6.469 3.106 6.996c0 0 .015-.131.028-.362a4.758 4.758 0 0 0 .205-.181c2.091-1.956 3.325-6.621 3.834-8.97 0 0 1.369-6.079 1.319-10.449z"/><path fill="#ef8a37" d="m15.317 6.424-.003-.059c-.02-.398-.1-.488-.13-.507a.52.52 0 0 0-.216-.246c-.336-.199-.595.06-.909.134l-.003-.011a48.395 48.395 0 0 0-.197-.696 2.935 2.935 0 0 0-.087-.254 5.015 5.015 0 0 0-.194-.434c-.166-.335-.346-.642-.431-.855l-.025-.067-.01-.029c-.103-.298-.245-.436-.373-.363-.009.005-.018.011-.026.018s-.017.014-.024.022-.03.031-.043.047c-.029.036-.052.072-.079.099l-.001.001a.157.157 0 0 1-.135.05.385.385 0 0 1-.074-.013c-.154-.041-.252-.142-.348-.134a3.337 3.337 0 0 0-.588-.597c-.222-.169-.438-.338-.707-.381s-.121.393-.121.393l-.026-.025a3.396 3.396 0 0 0-.353-.296c-.172-.119-.506-.402-.854-.243a.694.694 0 0 0-.061.032c-.151.092-.217.235-.274.38l-.021.055a1.14 1.14 0 0 1-.129.259.316.316 0 0 1-.078.081l-.014.008-.031.017c-.006.003-.012.004-.019.006-.01.003-.019.007-.03.009l-.021.003-.03.004-.022.001h-.031l-.023-.001-.032-.002-.024-.003-.034-.004-.025-.003-.014-.002-.038-.005a1.99 1.99 0 0 1-.026-.003l-.033-.003a.21.21 0 0 0-.025-.002l-.031-.001H8.27l-.03.002-.023.002a.305.305 0 0 0-.029.007l-.021.006-.028.013-.018.009c-.01.006-.019.015-.028.023l-.013.011a.261.261 0 0 0-.036.048c-.17.287-.226.465-.115 1.054.018.096.042.194.068.293a1.022 1.022 0 0 0-.048-.022l-.018-.008a2.509 2.509 0 0 1-.072-.033l-.038-.018-.033-.015-.051-.025-.013-.006a1.69 1.69 0 0 1-.391-.27l-.044-.04c-.088-.081-.164-.158-.238-.219a.556.556 0 0 0-.175-.106c-.214-.077-.215.252-.212.336l.001.019c-.004.07-.007.132-.008.19-.003.25.034.41.156.731.084.223.073.527.072.891l.001.186v.01l.006.197v.006c.009.173.026.355.061.545.071.387.263.93.438 1.381l-.013-.018a6.25 6.25 0 0 1-.133-.188l-.009-.013c-.172-.252-.288-.458-.358-.557l-.005-.007a.29.29 0 0 0-.023-.03l-.009-.013v-.001l-.007-.01-.005-.007-.009-.011-.008-.01a.127.127 0 0 1-.01-.012l-.011-.013-.011-.013-.014-.016-.012-.013-.016-.017-.014-.014-.01-.01-.008-.007-.003-.002-.007-.006a.837.837 0 0 0-.085-.067.452.452 0 0 0-.261-.09s.196.476.186.97c-.032 1.546.045 1.523.172 2.374.082.547.222.918.784 1.44.681.632 2.528 1.941 3.093 1.999.053.005.103.009.152.011.055.017.084.02.084.02.35.034.608-.051.796-.217.134.048.226.069.226.069l.015.008.088.047a.178.178 0 0 0 .013.007l.006.003.009.005.012.006.007.003.01.004.005.002.013.002c.023.001.039-.014.087-.041a.948.948 0 0 1 .14-.061s.167.042.424.032v.001l.031-.002.075-.005.038-.004a2.094 2.094 0 0 0 .804-.261c.528-.3.945-1.054 1.191-1.688.09-.231.157-.447.199-.618.155-.64.097-1.466.094-2.13a8.606 8.606 0 0 1 .074-.947l.018-.15c.06-.501.127-1.003.117-1.309z"/><path fill="#eaa25c" d="M9.811 12.92a5.04 5.04 0 0 1-.363-.507c-.697-1.106-.775-2.289-.835-3.178a29.716 29.716 0 0 1-.537-.471 5.241 5.241 0 0 1-.131-.123c-.635-.62-.97-1.306-1.093-1.45 0 0-.052-.079-.137-.16l-.008-.007-.003-.002-.007-.006a.837.837 0 0 0-.085-.067c-.015.027-.021.065-.011.117.052.282.305.431.34 1.11s.058 1.568.336 2.327c.278.759.952 1.334 1.406 1.755s1.025.941 1.339.901a3.304 3.304 0 0 1-.212-.238z"/><path fill="#f9bb78" d="M7.352 5.174a.95.95 0 0 1 .029.062c.107.263.179.438.545 1.045s.579.959 1.063 1.504c.484.544.805.838.968 1.409s.216.773.345 1.345c.012.052.022.104.033.158a4.67 4.67 0 0 1 .007-.206c.01-.196.029-.454.056-.737.056-.589.146-1.286.251-1.749.018-.079.036-.15.054-.214a.315.315 0 0 1-.015-.019c-.281-.347-.552-.63-.722-.766-.553-.442-1.343-1.116-1.934-1.436s-.455-.421-.638-.406c-.089.007-.11.065-.109.122l.001.008c-.003-.049.01-.101.067-.121zM11.546 13.426c-.046.07-.138.131-.34.17-.383.074-.81-.381-1.294-.891s-.879-1.403-1.031-2.215c-.152-.812-.004-1.923-.26-2.431s-.597-1.1-.793-1.415c-.143-.229-.358-.752-.504-1.163l-.011-.073-.002-.006.002.006c.041.37.321.937.603 1.512l.149.304c.195.404.371.794.446 1.105.056.233.077.537.101.886l.001.014v.004l-.001-.001.001.001c.06.889.138 2.072.835 3.178.125.199.247.366.363.507.073.089.144.168.212.238-.315.039-.885-.48-1.339-.901s-1.129-.996-1.407-1.755c-.278-.759-.301-1.648-.336-2.327s-.287-.828-.34-1.11c-.01-.052-.004-.09.011-.117a.452.452 0 0 0-.261-.09s.196.476.186.97c-.032 1.546.045 1.523.172 2.374.082.547.222.918.784 1.44.681.632 2.528 1.941 3.093 1.999.053.005.103.009.152.011.055.017.084.02.084.02.35.034.608-.051.796-.217a1.77 1.77 0 0 1-.073-.028z"/><path fill="#eda55f" d="M9.76 7.188c-.7-.594-1.031-.883-1.533-1.227s-.46-.455-.494-.288c-.034.167.681.945.99 1.236s.788.721 1.178 1.255c.363.498.396.864.497 1.591.056-.589.146-1.286.251-1.749-.222-.247-.49-.48-.888-.818z"/><path fill="#e37933" d="M10.208 6.787c-.345-.568-.919-1.119-1.551-1.646s-1.299-.863-1.539-.995-.138.403-.12.957c.011.327-.028.948-.062 1.4l.018.12c.071.387.263.931.438 1.381a5.197 5.197 0 0 0 .682.759l.208.185c.105.093.216.188.329.286-.024-.357-.045-.667-.102-.905-.074-.311-.251-.702-.446-1.105a42.548 42.548 0 0 0-.149-.304c-.283-.575-.562-1.142-.603-1.512 0 0-.027-.06-.028-.121-.001-.057.02-.115.109-.122.183-.015.047.086.638.406s1.381.994 1.934 1.436c.17.136.441.419.722.766-.1-.311-.234-.582-.479-.987z"/><path fill="#f9b65a" d="M10.836 6.851c-.024-.397.178-.798.372-1.304a4.086 4.086 0 0 0-.091-.498 3.813 3.813 0 0 1-.04-.178l-.022.057-.038.095-.03.073c-.175.423-.426.981-.584 1.391.146.221.281.443.403.662a.952.952 0 0 0 .03-.298zM11.663 4.445s.011-.015.031-.037c.051-.107.1-.203.143-.282.174-.319.137-.205.513-.167s.174-.504.505-.49c.331.014.362.72.614.962.095.091.204.224.304.354a5.015 5.015 0 0 0-.194-.434c-.166-.335-.346-.642-.431-.855l-.025-.067-.01-.029c-.103-.298-.245-.436-.373-.363-.009.005-.018.011-.026.018s-.017.014-.024.022c-.053.051-.083.107-.121.146l-.001.001a.16.16 0 0 1-.135.05.385.385 0 0 1-.074-.013c-.154-.041-.252-.142-.348-.134-.035.003-.07.02-.108.061l-.029.034c-.081.108-.12.189-.169.271-.045.075-.1.15-.204.247-.189.174-.212.376-.293.711a.25.25 0 0 1 .026.007c.227.075.43-.016.43-.016z"/><path fill="#f9b65a" d="m13.994 8.054-.044-.091c-.202-.411-.456-.793-.737-1.234-.299-.469-.406-.949-.5-1.322a2.432 2.432 0 0 0-.141-.444 6.642 6.642 0 0 0-.075-.148 1.724 1.724 0 0 0-.183-.29l-.019-.023-.024-.027a.784.784 0 0 0-.106-.094c-.047.041-.099.095-.185.123-.24.077.07.272-.025.471s-.413-.203-.413-.203-.119.156-.062.658c.057.502.064.763-.07 1.493s-.268.981-.447 1.563-.238 1.348-.222 2.102.047 1.291.645 2.116c.336.463.497.733.575.88.03.016.048.023.062.024.023.001.039-.014.087-.041a.948.948 0 0 1 .14-.061s-.063-.408.364-1.303 1.043-1.958 1.201-2.475c.059-.194.127-.487.211-.813l.043-.166c.027-.101.055-.204.085-.308a4.612 4.612 0 0 0-.16-.387z"/><path fill="#ffd46a" d="M11.98 4.503c.085-.027.138-.081.185-.123a.885.885 0 0 0-.104-.067c-.164-.09-.307.03-.367.095-.02.021-.031.037-.031.037s-.203.091-.43.016l-.026-.007c-.17-.042-.193.108-.13.418.011.055.024.113.04.178a3.735 3.735 0 0 1 .115.877c.003.132.001.269-.006.421-.014.325-.135.565-.271.843l-.06.124a3.873 3.873 0 0 0-.157.371 3.316 3.316 0 0 0-.088.321c-.104.463-.194 1.159-.251 1.749-.027.283-.047.541-.056.737l-.007.206a18.963 18.963 0 0 0-.378-1.503c-.164-.572-.484-.865-.968-1.409s-.697-.896-1.063-1.504-.437-.783-.545-1.045a.613.613 0 0 0-.029-.062c-.124.045-.039.234-.039.234.003.023.006.048.011.073.145.41.361.933.504 1.163.196.315.537.908.793 1.415s.108 1.618.26 2.431c.152.812.547 1.706 1.031 2.215s.911.965 1.294.891c.202-.039.294-.1.34-.17l.073.028c.134.048.226.069.226.069l.015.008.088.047a.178.178 0 0 0 .013.007c-.077-.147-.239-.416-.575-.88-.598-.825-.629-1.362-.645-2.116s.043-1.52.222-2.102c.179-.582.313-.833.447-1.563s.127-.992.07-1.493c-.057-.502.062-.658.062-.658s.318.402.413.203c.095-.199-.215-.394.025-.471zM15.317 6.424l-.003-.059c-.02-.398-.1-.488-.13-.507l-.011-.005c-.01.357-.181.783-.578 1.458a2.89 2.89 0 0 0-.128.249 6.334 6.334 0 0 0-.312.879l-.002-.004.002.004a14.42 14.42 0 0 0-.128.474c-.084.326-.152.619-.211.813-.157.517-.774 1.579-1.201 2.475s-.364 1.303-.364 1.303.167.042.424.032v.001l.031-.002.075-.005.038-.004a2.094 2.094 0 0 0 .804-.261c.528-.3.945-1.054 1.191-1.688.09-.231.157-.447.199-.618.155-.64.097-1.466.094-2.13a8.606 8.606 0 0 1 .074-.947l.018-.15c.06-.501.127-1.003.117-1.309z"/><path fill="#cd6f28" d="M11.499 3.742a1.05 1.05 0 0 0 .204-.247l.05-.086a.829.829 0 0 0-.185.06c-.262.115-.16.178-.369.331s-.399.245-.441.482c-.042.237-.195.784-.195.784l-.216.732c.023-.102.038-.373-.342-.636-.481-.332-.715-.35-.979-.464a.365.365 0 0 0-.28-.02 4.467 4.467 0 0 1 .632.505c.189.181.38.395.569.651a18.629 18.629 0 0 1 .455.651c.158-.41.409-.968.584-1.391l.03-.073.038-.095.022-.057c-.063-.31-.04-.46.13-.418.082-.335.105-.537.293-.711z"/><path fill="#eda55f" d="M7.929 3.981c.018.096.042.194.068.293l.035.016c.155.071.335.159.53.275.054-.359-.154-.97.094-1.03.313-.076.638.14.832-.12s-.005-.463.22-.619c.225-.156.315-.385.53-.076s.357.458.55.662c.193.204.416.357.355.15s-.172-.593-.106-.757c.066-.164.103-.012.286.076.137.066.343.179.526.406l.023-.031a.342.342 0 0 1 .029-.034c.038-.04.073-.058.108-.061a3.337 3.337 0 0 0-.588-.597c-.222-.169-.438-.338-.707-.381s-.121.393-.121.393l-.026-.025a3.396 3.396 0 0 0-.353-.296c-.172-.119-.506-.402-.854-.243a.694.694 0 0 0-.061.032c-.151.092-.217.235-.274.38l-.021.055a1.14 1.14 0 0 1-.129.259.316.316 0 0 1-.078.081l-.014.008-.031.017c-.006.003-.012.004-.019.006-.01.003-.019.007-.03.009l-.021.003-.03.004-.022.001h-.031l-.023-.001-.032-.002-.024-.003-.034-.004-.025-.003-.014-.002-.038-.005a1.99 1.99 0 0 1-.026-.003l-.033-.003a.21.21 0 0 0-.025-.002l-.031-.001H8.27l-.03.002-.023.002a.305.305 0 0 0-.029.007l-.021.006-.028.013-.018.009c-.01.006-.019.015-.028.023l-.013.011a.261.261 0 0 0-.036.048c-.17.287-.226.465-.115 1.054z"/><path fill="#c66625" d="M14.467 7.562a2.75 2.75 0 0 1 .128-.249c.397-.675.567-1.102.578-1.458l.011.005a.52.52 0 0 0-.216-.246c-.336-.199-.595.06-.909.134.133.484.273 1.021.374 1.512.02.096.03.198.034.303z"/><path fill="#db7326" d="M11.048 6.294c-.038.304-.074.613-.093.896.137-.278.258-.518.271-.843.006-.152.008-.289.006-.421-.081.061-.16.17-.184.368zM14.057 6.077c-.049.486.131.769.04.998-.049.125-.04.302-.022.437-.044-.203-.13-.527-.275-.78-.228-.4-.478-.487-.555-.986s-.097-.851-.356-1.154c-.26-.302-.468-.458-.535-.278a.784.784 0 0 1-.084.16l.024.027a1.724 1.724 0 0 1 .202.313c.024.045.049.094.075.148.056.116.097.268.141.444.094.373.201.853.5 1.322.281.442.535.824.737 1.234l.044.091a4.3 4.3 0 0 1 .16.387c.089-.307.191-.616.312-.879a1.836 1.836 0 0 0-.034-.303 24.703 24.703 0 0 0-.374-1.512l-.003-.011c.01.116.012.232.001.341z"/><path fill="#d88844" d="m6.707 7.022-.003-.002.003.002z"/><path fill="#eaa146" d="M12.251 13.506s-.063-.408.364-1.303 1.043-1.958 1.201-2.475c.059-.194.127-.487.211-.813l.043-.166c.027-.101.055-.204.085-.308a4.612 4.612 0 0 0-.16-.387l-.044-.091c-.419-.69-.382-.487-.653-.864s-.299-.575-.698-1.143-.165-.664-.351-.883c-.186-.219-.037.282.007.584s.144.566.272 1.027c.128.46.18.607.313 1.098s.096.774.16 1.646c.064.871-.081.722-.107.973s-.202.956-.202.956-.142-.659-.198-1.053c-.057-.394-.144-.783-.203-1.405s.011-.885.056-1.324c.045-.439-.097-.99-.197-1.362s-.126-.662-.324-.958c-.197-.296-.08.089-.049.301s.027.614-.059 1.198-.364 1.335-.525 2.034-.011 1.644.139 2.58c.15.936.434.973.623 1.532.121.358.15.564.155.667a.948.948 0 0 1 .14-.061z"/><path fill="#4f6142" d="M18 10.095s-.762 4.602-1.578 6.47c-.575 1.316-1.961 5.259-2.813 8.25.007.332.009.664.005.997a10.222 10.222 0 0 0-.726 2.117 11.184 11.184 0 0 0-.231 1.43c-.004.128-.009.241-.015.337.052-.043.103-.088.154-.134l.051-.047c2.091-1.956 3.325-6.621 3.834-8.97 0 0 1.369-6.079 1.32-10.449z"/><path fill="#424f38" d="M12.657 29.36c.029-.315.093-.823.231-1.43.023-.192.044-.384.063-.576-.061-1.275-.318-3.079-1.067-5.376-1.67-5.122-2.944-7.447-2.944-7.447s.239 2.786.8 6.009c.723 1.164 1.405 2.315 1.864 3.234 1.016 2.033 1.089 4.428 1.052 5.587z"/><path fill="#8a8c43" d="M13.614 25.812c.003-.333.001-.665-.005-.997-.004-.171-.008-.343-.014-.514-.165-3.622-.757-7.213-1.646-10.724l-.088-.047c.245 1.12.447 2.249.622 3.381.516 3.447.813 6.968.47 10.442-.019.192-.04.384-.063.576.145-.635.371-1.377.726-2.117z"/><path fill="#424f38" d="M16.422 16.565c-.575 1.316-1.961 5.259-2.813 8.25.007.332.009.664.005.997.124-.259.263-.519.421-.773 1.334-2.155 2.776-5.244 2.921-5.897 0 0 1.094-4.677 1.045-9.047 0 0-.762 4.602-1.578 6.47z"/><path fill="#ffde94" d="M14.703 8.379c-.025.683.25.984.24 1.665s-.346 1.889-.676 2.276c-.33.388-.669.715-.669.715s.334-.574.591-1.043c.257-.47.451-.946.457-1.487s.048-.996-.063-1.019c-.111-.023-.11.518-.324.966s-.567 1.21-.818 1.509c-.221.263-.815 1.181-.767 1.579a2.094 2.094 0 0 0 .948-.273c.528-.3.945-1.054 1.191-1.688.09-.231.157-.447.199-.618.155-.64.097-1.466.094-2.13a9.794 9.794 0 0 1 .092-1.097c.06-.501.127-1.003.117-1.309l-.003-.059a4.455 4.455 0 0 1-.22.658c-.209.478-.367.671-.392 1.354z"/><path fill="#c66625" d="M7.106 5.416c-.005.29.183.325.276.744s.103.665.167.965c.064.3.127.461.252.767s.316.402.296.637c-.02.235-.339-.137-.395-.345s-.264-.904-.385-1.258c-.121-.353-.15-1.091-.197-.883s-.103.463-.003.835c.054.202.127.591.211.951l.067.176a5.197 5.197 0 0 0 .682.759l.208.185c.105.093.216.188.329.286-.024-.357-.045-.667-.102-.905-.074-.311-.251-.702-.446-1.105a42.548 42.548 0 0 0-.149-.304c-.283-.575-.562-1.142-.603-1.512 0 0-.027-.06-.028-.121-.086-.029-.177-.024-.179.128z"/><path fill="#d88844" d="M7.944 8.64c-.635-.62-.97-1.306-1.093-1.45 0 0-.052-.079-.137-.16.039.039.18.199.315.59.159.46.047.65.394 1.202s.611.943.772 1.256c.161.313.634 1.102.467.987s-.607-.631-.816-1.018c-.209-.387-.64-1.368-.632-1.149s.07.442.203.944.21.834.592 1.332.629.74.843.953c.214.212.377.374.575.543s.384.25.384.25a5.04 5.04 0 0 1-.363-.507c-.697-1.106-.775-2.289-.835-3.178a29.716 29.716 0 0 1-.537-.471 5.241 5.241 0 0 1-.131-.123z"/></svg>