<svg xmlns="http://www.w3.org/2000/svg" width="22" height="32"><path fill="#e91e63" d="M5.657.083c-.505.21-.89.527-1.615 1.337-.282.315-.623.675-.755.8-.237.223-.257.235-.935.583-.772.395-.978.51-1.34.743-.397.257-.522.362-.637.545-.395.627-.395 1.397.003 2.635l.1.315-.175.522c-.228.685-.285.955-.287 1.38-.003.18.005.335.015.345s.048-.005.087-.033c.135-.095.432-.23.625-.283.255-.07.512-.057.713.033.163.075.22.133.893.852 1.7 1.83 3.123 2.68 4.665 2.787l.25.018-.003.213c0 .117-.005.373-.013.568-.015.498.025.52.285.16.197-.275.498-.572.783-.773.463-.33 1.135-.61 1.775-.738.252-.053.3-.055.305-.025.015.063-.095.155-.248.21a.614.614 0 0 0-.185.098c-.037.04-.025.05.193.158.28.14.563.348.83.61.477.473.785.93 1.477 2.207.175.322.412.742.527.93.113.19.193.345.178.345-.018 0-.197-.017-.405-.038a14.181 14.181 0 0 0-1.965-.04c-.908.075-1.585.25-2.255.585-.33.163-.37.19-.58.402-.518.52-.928 1.352-1.123 2.277-.138.655-.152.852-.152 1.893 0 .53.008.973.015.983.01.008.16-.133.338-.315.683-.698 1.327-1.133 3.06-2.075.635-.345.672-.37.875-.573.42-.42.615-.913.762-1.913.092-.64.18-.793.56-.973.158-.073.18-.078.465-.078.27.003.315.008.44.067.197.09.328.218.47.455.065.11.265.433.445.715 1.845 2.922 3.082 5.495 3.845 8 .315 1.038.955 3.81 1.247 5.4.117.627.11.6.155.6.067 0 .18-.073.247-.16l.065-.085-.115-.66c-.663-3.78-1.352-6.247-2.355-8.432a18.505 18.505 0 0 0-.727-1.413 4.128 4.128 0 0 1-.185-.325c-.078-.155-.082-.177-.082-.438 0-.235.01-.305.07-.477.08-.235.238-.523.427-.77l.135-.18.22.032c.27.043.767.027 1.035-.027.575-.125 1.137-.41 1.725-.883.462-.37 1.122-1.087 1.742-1.895.128-.165.365-.475.527-.688l.297-.387-.075-.018c-.383-.082-1.733-.088-2.242-.01-1.225.19-2.128.668-2.697 1.422a3.246 3.246 0 0 1-.24.293c-.12.11-.288.343-.39.543-.145.282-.255.655-.398 1.345-.067.332-.155.707-.19.828-.065.23-.18.51-.207.51-.015-.003-.102-.145-1.303-2.137a743.718 743.718 0 0 1-3.287-5.51c-.277-.545-.262-1.2.04-1.81.405-.813 1.345-1.652 2.455-2.192.125-.063.182-.102.162-.115-.068-.043-.825-.018-1.125.037-.252.045-1.22.275-1.325.315-.033.012-.04-.047-.053-.443-.04-1.228-.375-2.36-1.175-3.982a21.222 21.222 0 0 0-1.08-1.962c-.377-.595-.477-.738-.665-.922-.143-.143-.393-.337-.367-.288.005.012.045.095.09.185.123.252.165.45.165.763-.002.305-.04.49-.175.837-.23.603-.217 1.137.055 2.188.155.598.23.92.248 1.075.015.12.01.14-.088.303-.463.755-.825 1.657-.973 2.435-.12.633-.125 1.353-.013 1.85.027.13-.037.008-.147-.275-.202-.515-.39-1.25-.53-2.063a99.987 99.987 0 0 1-.365-2.25c-.04-.393.065-.848.305-1.315.07-.135.313-.525.537-.865.663-.993.835-1.407.835-1.992v-.28l-.137-.272a2.547 2.547 0 0 0-.52-.735C7.083.259 6.623.032 6.111.009c-.24-.013-.258-.01-.455.072zm.99 1.244c.66.167 1.027.585.93 1.052-.1.465-.322.965-.775 1.732-.31.525-.515.935-.603 1.2-.032.095-.072.223-.093.282-.045.13-.235.343-.412.46-.072.048-.263.173-.425.277-.383.253-.532.447-.55.718l-.008.11.263.095c.35.125.825.36 1.093.537.12.08.315.237.433.353l.213.207-.26-.127c-1.248-.615-2.712-.737-4.09-.345-.703.2-1.448.565-2.005.985l-.182.135v-.165c0-.223.085-.62.188-.89.125-.32.273-.56.463-.747l.165-.162-.055-.138C.805 6.569.749 6.039.799 5.574c.025-.24.125-.822.145-.848.037-.05.103.365.133.845.028.482.068.69.163.877.147.29.33.412.75.5.21.045.392.058 1.15.075.495.013 1 .035 1.123.05s.225.022.228.02c.003-.005-.003-.26-.015-.57-.018-.492-.048-.81-.082-.845a.568.568 0 0 0-.162.08c-.393.24-.79.36-1.24.383-.63.027-1.107-.185-1.4-.625-.077-.115-.22-.465-.2-.487.002-.003.073.058.155.138.302.29.625.43 1.045.45.795.04 1.655-.465 2.158-1.265.117-.19.28-.555.28-.635 0-.04-.005-.04-.077-.005-.128.067-.26.22-.492.567-.22.327-.402.53-.545.603-.235.12-.945.18-1.282.107a1.251 1.251 0 0 1-.64-.325c-.163-.16-.177-.21-.042-.143.235.12.453.165.805.165.283 0 .368-.01.525-.058.288-.093.507-.215.692-.39.322-.303.452-.635.425-1.067a1.036 1.036 0 0 0-.04-.265c-.022-.04-.025-.038-.027.02 0 .132-.128.515-.255.772-.11.217-.165.297-.333.465a1.295 1.295 0 0 1-.362.277c-.308.147-.305.133.053-.232.37-.38.478-.55.52-.81.02-.118.013-.3-.01-.3-.005 0-.06.022-.123.05-.185.078-.382.215-.74.512-.185.152-.395.32-.465.37-.155.112-.425.24-.542.26-.083.013-.093.008-.107-.055A1.102 1.102 0 0 1 1.963 4c.022-.297.245-.657.585-.938.165-.135.402-.28.425-.257.025.025-.098.232-.237.4-.297.362-.333.407-.39.522a.952.952 0 0 0-.063.132c0 .027.063.01.208-.065.18-.09.248-.14.618-.45.515-.433.728-.538 1.053-.518.202.01.218-.015.09-.143-.09-.09-.117-.098-.48-.132l-.225-.02.1-.047a.891.891 0 0 1 .263-.055c.438-.033.828.335.868.815l.015.18.103-.018c.39-.063.643-.465.607-.962-.018-.27-.09-.427-.225-.488-.162-.073-.532-.063-.865.025a1.549 1.549 0 0 1-.27.057c-.005-.007.032-.048.085-.09.207-.173.622-.255 1.022-.205.34.04.393.068.485.253.228.453.235 1.035.02 1.645-.107.305-.357.788-.603 1.16-.115.175-.195.31-.183.303.218-.125.822-.583 1.125-.845.688-.603 1.107-1.322 1.157-1.98.02-.26-.025-.387-.183-.532-.152-.14-.3-.2-.782-.323a5.712 5.712 0 0 1-.438-.123c-.048-.03.162-.05.395-.038.125.008.31.032.412.06z"/></svg>