<svg xmlns="http://www.w3.org/2000/svg" width="32" height="32"><path fill="#7fb241" d="M24.856 19.362a.354.354 0 0 0-.4.044c-.595.513-1.376.357-2.366.159-.864-.173-1.844-.368-2.889-.092-1.28.439-2.642 1.765-2.704 4.17-.144.127-.288.263-.432.404V13.42a.355.355 0 0 0-.71 0v6.492c-.121-.118-.242-.23-.363-.337-.062-2.263-1.347-3.512-2.579-3.934-.965-.253-1.887-.069-2.7.093-.923.184-1.653.33-2.204-.145a.355.355 0 0 0-.584.314c.284 2.225.724 4.315 2.963 5.438.464.206.948.307 1.443.307 1.08 0 2.213-.49 3.308-1.433.236.216.473.455.715.718v10.501a.355.355 0 0 0 .71 0V25.07c.265-.289.525-.55.784-.786 1.164 1.007 2.367 1.532 3.521 1.532.529 0 1.047-.109 1.546-.33 2.358-1.183 2.824-3.402 3.126-5.765a.356.356 0 0 0-.184-.358z"/><path fill="#e14b4b" d="M17.663.32a.353.353 0 0 0-.521-.052l-1.438 1.316L14.266.268a.351.351 0 0 0-.521.052c-.83 1.134-1.281 2.347-1.342 3.605a.357.357 0 0 0 .022.141c.915 2.424 1.909 3.625 3.037 3.673l.069.001c1.14 0 2.266-1.194 3.438-3.647a.347.347 0 0 0 .034-.168c-.06-1.258-.512-2.471-1.342-3.605z"/><path fill="#bf3333" d="m15.712 6.955.248-.248-4.72-4.72a.352.352 0 0 0-.497 0 7.025 7.025 0 0 0 0 9.924l.248-.248 4.72-4.707z"/><path fill="#d03f3e" d="M20.68 1.986a.352.352 0 0 0-.497 0l-9.427 9.427a.35.35 0 0 0 0 .496c1.368 1.368 3.165 2.052 4.962 2.052s3.594-.684 4.962-2.052c1.325-1.325 2.055-3.088 2.055-4.962s-.73-3.637-2.055-4.962z"/></svg>